o
v 0.000000 -0.800000 -0.000000
v 0.191453 -0.776753 -0.000000
v 0.169523 -0.776753 0.111216
v 0.108389 -0.774121 0.196285
v 0.023077 -0.776753 0.237571
v -0.067890 -0.776753 0.223764
v -0.143304 -0.776753 0.158696
v -0.185889 -0.776753 0.057272
v -0.185889 -0.776753 -0.057272
v -0.143304 -0.776753 -0.158696
v -0.067890 -0.776753 -0.223764
v 0.016195 -0.545121 -0.166726
v 0.108757 -0.776753 -0.196953
v 0.169523 -0.776753 -0.111216
v 0.371779 -0.708365 -0.000000
v 0.329194 -0.708365 0.215968
v 0.188542 -0.632387 0.341438
v 0.044813 -0.708365 0.461335
v -0.107089 -0.575406 0.352964
v -0.278280 -0.708365 0.308168
v -0.360975 -0.708365 0.111216
v -0.360975 -0.708365 -0.111216
v -0.278280 -0.708365 -0.308169
v -0.106150 -0.570359 -0.349869
v 0.043520 -0.687928 -0.448025
v 0.211194 -0.708365 -0.382460
v 0.329194 -0.708365 -0.215968
v 0.530498 -0.598809 -0.000000
v 0.469733 -0.598809 0.308168
v 0.301357 -0.598809 0.545739
v 0.063944 -0.598809 0.658288
v -0.188117 -0.598809 0.620030
v -0.397084 -0.598809 0.439732
v -0.515083 -0.598809 0.158696
v -0.515083 -0.598809 -0.158696
v -0.397083 -0.598809 -0.439732
v -0.188117 -0.598809 -0.620031
v 0.063945 -0.598809 -0.658288
v 0.301357 -0.598809 -0.545739
v 0.469733 -0.598809 -0.308169
v 0.658387 -0.454452 -0.000000
v 0.582973 -0.454452 0.382460
v 0.315233 -0.383037 0.570867
v 0.079188 -0.453467 0.815212
v -0.170708 -0.332290 0.562652
v -0.492810 -0.454452 0.545739
v -0.639256 -0.454452 0.196953
v -0.639256 -0.454452 -0.196953
v -0.489145 -0.451072 -0.541681
v -0.233467 -0.454452 -0.769503
v 0.079360 -0.454452 -0.816983
v 0.374007 -0.454452 -0.677302
v 0.517170 -0.403156 -0.339290
v 0.718680 -0.272559 -0.000000
v 0.622741 -0.266726 0.408549
v 0.394685 -0.263499 0.714750
v 0.090163 -0.283684 0.928199
v -0.265249 -0.283684 0.874255
v -0.559896 -0.283684 0.620030
v -0.726277 -0.283684 0.223764
v -0.726277 -0.283684 -0.223764
v -0.559896 -0.283684 -0.620031
v -0.265249 -0.283684 -0.874255
v 0.090163 -0.283684 -0.928199
v 0.424920 -0.283684 -0.769503
v 0.662333 -0.283684 -0.434524
v 0.794167 -0.096429 -0.000000
v 0.567051 -0.077759 0.372014
v 0.451138 -0.096429 0.816983
v 0.095726 -0.096429 0.985471
v -0.270953 -0.092778 0.893055
v -0.594443 -0.096429 0.658288
v -0.771090 -0.096429 0.237571
v -0.771090 -0.096429 -0.237571
v -0.594443 -0.096429 -0.658288
v -0.266170 -0.091141 -0.877293
v 0.095726 -0.096429 -0.985471
v 0.451138 -0.096429 -0.816983
v 0.703200 -0.096429 -0.461335
v 0.794167 0.096429 0.000000
v 0.703200 0.096429 0.461335
v 0.451138 0.096429 0.816983
v 0.095726 0.096429 0.985471
v -0.249567 0.085456 0.822568
v -0.589756 0.095669 0.653097
v -0.771090 0.096429 0.237571
v -0.771090 0.096429 -0.237571
v -0.594443 0.096429 -0.658288
v -0.281615 0.096429 -0.928199
v 0.095726 0.096429 -0.985471
v 0.451138 0.096429 -0.816983
v 0.703200 0.096429 -0.461335
v 0.684779 0.259702 0.000000
v 0.662333 0.283684 0.434524
v 0.424920 0.283684 0.769503
v 0.090163 0.283684 0.928199
v -0.265249 0.283684 0.874255
v -0.559896 0.283684 0.620030
v -0.726277 0.283684 0.223764
v -0.726277 0.283684 -0.223764
v -0.559896 0.283684 -0.620031
v -0.265249 0.283684 -0.874255
v 0.076869 0.241856 -0.791340
v 0.421457 0.281372 -0.763232
v 0.662333 0.283684 -0.434524
v 0.658387 0.454452 0.000000
v 0.474452 0.369856 0.311265
v 0.374006 0.454452 0.677302
v 0.079360 0.454452 0.816983
v -0.233467 0.454452 0.769503
v -0.492810 0.454452 0.545739
v -0.639255 0.454452 0.196953
v -0.639255 0.454452 -0.196953
v -0.492810 0.454452 -0.545739
v -0.233467 0.454452 -0.769503
v 0.079360 0.454452 -0.816983
v 0.310800 0.377650 -0.562839
v 0.582973 0.454452 -0.382460
v 0.530498 0.598809 0.000000
v 0.469733 0.598809 0.308169
v 0.301357 0.598809 0.545739
v 0.063944 0.598809 0.658288
v -0.153656 0.489112 0.506446
v -0.397084 0.598809 0.439732
v -0.515083 0.598809 0.158696
v -0.419751 0.487981 -0.129324
v -0.360435 0.543541 -0.399147
v -0.188117 0.598809 -0.620030
v 0.063945 0.598809 -0.658288
v 0.301357 0.598809 -0.545739
v 0.469733 0.598809 -0.308168
v 0.371778 0.708365 0.000000
v 0.329193 0.708365 0.215968
v 0.211194 0.708365 0.382460
v 0.044813 0.708365 0.461335
v -0.131834 0.708365 0.434524
v -0.270322 0.688108 0.299356
v -0.360417 0.707269 0.111044
v -0.360975 0.708365 -0.111216
v -0.278280 0.708365 -0.308168
v -0.128725 0.691659 -0.424276
v 0.036913 0.583493 -0.380010
v 0.211194 0.708365 -0.382459
v 0.329193 0.708365 -0.215968
v 0.191453 0.776753 0.000000
v 0.169523 0.776753 0.111216
v 0.108757 0.776753 0.196953
v 0.023077 0.776753 0.237571
v -0.064341 0.736151 0.212067
v -0.143304 0.776753 0.158696
v -0.185889 0.776753 0.057272
v -0.185889 0.776753 -0.057272
v -0.143304 0.776753 -0.158696
v -0.067890 0.776753 -0.223764
v 0.023077 0.776753 -0.237571
v 0.094425 0.674389 -0.170997
v 0.169523 0.776753 -0.111216
v -0.000000 0.800000 0.000000
vn 0.024493 -0.988119 -0.151729
vn 0.277553 -0.960435 0.022995
vn 0.200402 -0.937028 0.286039
vn 0.378506 -0.886234 0.267064
vn -0.295060 -0.890455 0.346453
vn -0.007577 -0.827554 0.561335
vn -0.227864 -0.964890 0.130632
vn -0.276399 -0.960549 0.030815
vn -0.262991 -0.961834 -0.075575
vn -0.054711 -0.897710 -0.437177
vn 0.496021 -0.792387 -0.355087
vn 0.030109 -0.961930 -0.271631
vn -0.484061 -0.733703 -0.476828
vn 0.259581 -0.962150 -0.082975
vn 0.481035 -0.876450 0.020984
vn 0.259327 -0.928903 0.264366
vn 0.255760 -0.905729 0.337998
vn -0.067219 -0.958574 0.276799
vn -0.202269 -0.908641 0.365321
vn -0.218286 -0.854373 0.471590
vn -0.473962 -0.877612 0.071816
vn -0.462370 -0.879475 -0.112858
vn -0.023207 -0.944757 -0.326949
vn -0.104951 -0.922320 -0.371902
vn -0.059085 -0.979376 -0.193216
vn -0.002841 -0.956864 -0.290522
vn 0.441269 -0.882740 -0.161408
vn 0.671240 -0.741028 0.017742
vn 0.624322 -0.683865 0.377559
vn 0.470952 -0.699430 0.537589
vn -0.079114 -0.723077 0.686222
vn -0.299151 -0.645812 0.702450
vn -0.404019 -0.848294 0.342295
vn -0.659284 -0.743556 0.111664
vn -0.652886 -0.742270 -0.150918
vn -0.517054 -0.763537 -0.386868
vn -0.056871 -0.910631 -0.409289
vn 0.027103 -0.890781 -0.453625
vn 0.499252 -0.737732 -0.454422
vn 0.704273 -0.628148 -0.330801
vn 0.907003 -0.416780 -0.060339
vn 0.695964 -0.577731 0.426452
vn 0.565977 -0.524232 0.636279
vn 0.015895 -0.751845 0.659148
vn -0.346343 -0.632652 0.692675
vn -0.568342 -0.456535 0.684517
vn -0.811515 -0.565781 0.146065
vn -0.800946 -0.572195 -0.176291
vn -0.645242 -0.597240 -0.476411
vn -0.321743 -0.632243 -0.704805
vn 0.133579 -0.645668 -0.751844
vn 0.550862 -0.675429 -0.490253
vn 0.779234 -0.553226 -0.294508
vn 0.937200 -0.339937 0.078096
vn 0.932761 -0.101703 0.345852
vn 0.518731 -0.564632 0.641957
vn 0.215282 -0.461435 0.860658
vn -0.407142 -0.681571 0.608027
vn -0.639250 -0.561987 0.524910
vn -0.919181 -0.354042 0.172516
vn -0.915643 -0.354636 -0.189294
vn -0.744140 -0.353367 -0.566909
vn -0.417118 -0.332931 -0.845677
vn 0.148436 -0.422738 -0.894013
vn 0.608294 -0.395146 -0.688359
vn 0.811142 -0.519852 -0.267959
vn 0.944370 -0.307959 0.115442
vn 0.891344 -0.233785 0.388395
vn 0.738571 -0.135442 0.660431
vn 0.093552 -0.145959 0.984857
vn -0.388572 0.055437 0.919749
vn -0.798537 -0.091241 0.594990
vn -0.974513 -0.120552 0.189184
vn -0.973376 -0.120625 -0.194907
vn -0.781627 -0.173342 -0.599176
vn -0.420151 -0.143803 -0.895988
vn 0.107967 -0.102697 -0.988836
vn 0.649966 -0.136836 -0.747543
vn 0.916086 -0.124141 -0.381282
vn 0.972278 0.232162 -0.027871
vn 0.884615 -0.163086 0.436874
vn 0.703411 -0.018937 0.710531
vn 0.057291 0.051512 0.997028
vn -0.443503 0.074668 0.893157
vn -0.747552 0.194573 0.635065
vn -0.971885 0.126248 0.198747
vn -0.974513 0.120552 -0.189184
vn -0.810918 0.129826 -0.570576
vn -0.357838 0.174046 -0.917420
vn 0.049443 0.352614 -0.934462
vn 0.640687 0.149421 -0.753123
vn 0.912830 0.182769 -0.365154
vn 0.882197 0.469836 0.031352
vn 0.759682 0.619734 0.197011
vn 0.608294 0.395146 0.688359
vn 0.148436 0.422738 0.894013
vn -0.452305 0.228810 0.862013
vn -0.751524 0.290884 0.592114
vn -0.916956 0.349765 0.191981
vn -0.919180 0.354042 -0.172516
vn -0.761130 0.377582 -0.527365
vn -0.293479 0.312203 -0.903548
vn 0.173523 0.534329 -0.827274
vn 0.327774 0.696190 -0.638658
vn 0.890657 0.314737 -0.328131
vn 0.924657 0.350028 0.149966
vn 0.802531 0.524618 0.284113
vn 0.561673 0.710255 0.424336
vn 0.059504 0.741755 0.668026
vn -0.161780 0.801649 0.575488
vn -0.645242 0.597240 0.476411
vn -0.736624 0.666621 0.114025
vn -0.623978 0.778586 -0.066747
vn -0.626331 0.679919 -0.381339
vn -0.347914 0.633482 -0.691127
vn 0.364125 0.324093 -0.873142
vn 0.487249 0.522608 -0.699620
vn 0.608136 0.690727 -0.391238
vn 0.671240 0.741028 -0.017742
vn 0.752620 0.531866 0.388178
vn 0.577098 0.676737 0.457148
vn -0.115032 0.738054 0.664864
vn -0.239265 0.811774 0.532706
vn -0.250967 0.880514 0.402133
vn -0.750404 0.660880 -0.011414
vn -0.670104 0.714184 -0.202240
vn -0.508355 0.845420 -0.163827
vn -0.223617 0.908089 -0.354077
vn -0.055030 0.903173 -0.425734
vn 0.580992 0.581273 -0.569710
vn 0.626143 0.677507 -0.385913
vn 0.481035 0.876450 -0.020984
vn 0.441269 0.882740 0.161408
vn 0.302825 0.900170 0.313035
vn 0.050755 0.927090 0.371386
vn -0.383115 0.759773 0.525326
vn -0.322746 0.834569 0.446464
vn -0.428518 0.893018 0.137447
vn -0.690054 0.687636 -0.225791
vn -0.608319 0.720218 -0.333517
vn -0.034841 0.847564 -0.529548
vn 0.070405 0.949992 -0.304233
vn -0.175939 0.946458 -0.270671
vn 0.418304 0.886106 -0.199594
vn 0.277553 0.960435 -0.022995
vn 0.259581 0.962150 0.082975
vn 0.182782 0.968161 0.171039
vn -0.096746 0.967114 0.235225
vn -0.072490 0.973115 0.218616
vn -0.110100 0.968845 0.221849
vn -0.272739 0.955168 0.115183
vn -0.277936 0.960161 -0.029016
vn -0.227864 0.964890 -0.130632
vn -0.113341 0.962316 -0.247190
vn 0.575897 0.715499 -0.395479
vn -0.056505 0.909002 -0.412944
vn -0.094355 0.948953 -0.300974
vn 0.036142 0.998879 -0.030584
f 1//1 2//2 3//3
f 1//1 3//3 4//4
f 1//1 4//4 5//5
f 1//1 5//5 6//6
f 1//1 6//6 7//7
f 1//1 7//7 8//8
f 1//1 8//8 9//9
f 1//1 9//9 10//10
f 1//1 10//10 11//11
f 1//1 11//11 12//12
f 1//1 12//12 13//13
f 1//1 13//13 14//14
f 1//1 14//14 2//2
f 2//2 15//15 16//16
f 16//16 3//3 2//2
f 3//3 16//16 17//17
f 17//17 4//4 3//3
f 4//4 17//17 18//18
f 18//18 5//5 4//4
f 5//5 18//18 19//19
f 19//19 6//6 5//5
f 6//6 19//19 20//20
f 20//20 7//7 6//6
f 7//7 20//20 21//21
f 21//21 8//8 7//7
f 8//8 21//21 22//22
f 22//22 9//9 8//8
f 9//9 22//22 23//23
f 23//23 10//10 9//9
f 10//10 23//23 24//24
f 24//24 11//11 10//10
f 11//11 24//24 25//25
f 25//25 12//12 11//11
f 12//12 25//25 26//26
f 26//26 13//13 12//12
f 13//13 26//26 27//27
f 27//27 14//14 13//13
f 14//14 27//27 15//15
f 15//15 2//2 14//14
f 15//15 28//28 29//29
f 29//29 16//16 15//15
f 16//16 29//29 30//30
f 30//30 17//17 16//16
f 17//17 30//30 31//31
f 31//31 18//18 17//17
f 18//18 31//31 32//32
f 32//32 19//19 18//18
f 19//19 32//32 33//33
f 33//33 20//20 19//19
f 20//20 33//33 34//34
f 34//34 21//21 20//20
f 21//21 34//34 35//35
f 35//35 22//22 21//21
f 22//22 35//35 36//36
f 36//36 23//23 22//22
f 23//23 36//36 37//37
f 37//37 24//24 23//23
f 24//24 37//37 38//38
f 38//38 25//25 24//24
f 25//25 38//38 39//39
f 39//39 26//26 25//25
f 26//26 39//39 40//40
f 40//40 27//27 26//26
f 27//27 40//40 28//28
f 28//28 15//15 27//27
f 28//28 41//41 42//42
f 42//42 29//29 28//28
f 29//29 42//42 43//43
f 43//43 30//30 29//29
f 30//30 43//43 44//44
f 44//44 31//31 30//30
f 31//31 44//44 45//45
f 45//45 32//32 31//31
f 32//32 45//45 46//46
f 46//46 33//33 32//32
f 33//33 46//46 47//47
f 47//47 34//34 33//33
f 34//34 47//47 48//48
f 48//48 35//35 34//34
f 35//35 48//48 49//49
f 49//49 36//36 35//35
f 36//36 49//49 50//50
f 50//50 37//37 36//36
f 37//37 50//50 51//51
f 51//51 38//38 37//37
f 38//38 51//51 52//52
f 52//52 39//39 38//38
f 39//39 52//52 53//53
f 53//53 40//40 39//39
f 40//40 53//53 41//41
f 41//41 28//28 40//40
f 41//41 54//54 55//55
f 55//55 42//42 41//41
f 42//42 55//55 56//56
f 56//56 43//43 42//42
f 43//43 56//56 57//57
f 57//57 44//44 43//43
f 44//44 57//57 58//58
f 58//58 45//45 44//44
f 45//45 58//58 59//59
f 59//59 46//46 45//45
f 46//46 59//59 60//60
f 60//60 47//47 46//46
f 47//47 60//60 61//61
f 61//61 48//48 47//47
f 48//48 61//61 62//62
f 62//62 49//49 48//48
f 49//49 62//62 63//63
f 63//63 50//50 49//49
f 50//50 63//63 64//64
f 64//64 51//51 50//50
f 51//51 64//64 65//65
f 65//65 52//52 51//51
f 52//52 65//65 66//66
f 66//66 53//53 52//52
f 53//53 66//66 54//54
f 54//54 41//41 53//53
f 54//54 67//67 68//68
f 68//68 55//55 54//54
f 55//55 68//68 69//69
f 69//69 56//56 55//55
f 56//56 69//69 70//70
f 70//70 57//57 56//56
f 57//57 70//70 71//71
f 71//71 58//58 57//57
f 58//58 71//71 72//72
f 72//72 59//59 58//58
f 59//59 72//72 73//73
f 73//73 60//60 59//59
f 60//60 73//73 74//74
f 74//74 61//61 60//60
f 61//61 74//74 75//75
f 75//75 62//62 61//61
f 62//62 75//75 76//76
f 76//76 63//63 62//62
f 63//63 76//76 77//77
f 77//77 64//64 63//63
f 64//64 77//77 78//78
f 78//78 65//65 64//64
f 65//65 78//78 79//79
f 79//79 66//66 65//65
f 66//66 79//79 67//67
f 67//67 54//54 66//66
f 67//67 80//80 81//81
f 81//81 68//68 67//67
f 68//68 81//81 82//82
f 82//82 69//69 68//68
f 69//69 82//82 83//83
f 83//83 70//70 69//69
f 70//70 83//83 84//84
f 84//84 71//71 70//70
f 71//71 84//84 85//85
f 85//85 72//72 71//71
f 72//72 85//85 86//86
f 86//86 73//73 72//72
f 73//73 86//86 87//87
f 87//87 74//74 73//73
f 74//74 87//87 88//88
f 88//88 75//75 74//74
f 75//75 88//88 89//89
f 89//89 76//76 75//75
f 76//76 89//89 90//90
f 90//90 77//77 76//76
f 77//77 90//90 91//91
f 91//91 78//78 77//77
f 78//78 91//91 92//92
f 92//92 79//79 78//78
f 79//79 92//92 80//80
f 80//80 67//67 79//79
f 80//80 93//93 94//94
f 94//94 81//81 80//80
f 81//81 94//94 95//95
f 95//95 82//82 81//81
f 82//82 95//95 96//96
f 96//96 83//83 82//82
f 83//83 96//96 97//97
f 97//97 84//84 83//83
f 84//84 97//97 98//98
f 98//98 85//85 84//84
f 85//85 98//98 99//99
f 99//99 86//86 85//85
f 86//86 99//99 100//100
f 100//100 87//87 86//86
f 87//87 100//100 101//101
f 101//101 88//88 87//87
f 88//88 101//101 102//102
f 102//102 89//89 88//88
f 89//89 102//102 103//103
f 103//103 90//90 89//89
f 90//90 103//103 104//104
f 104//104 91//91 90//90
f 91//91 104//104 105//105
f 105//105 92//92 91//91
f 92//92 105//105 93//93
f 93//93 80//80 92//92
f 93//93 106//106 107//107
f 107//107 94//94 93//93
f 94//94 107//107 108//108
f 108//108 95//95 94//94
f 95//95 108//108 109//109
f 109//109 96//96 95//95
f 96//96 109//109 110//110
f 110//110 97//97 96//96
f 97//97 110//110 111//111
f 111//111 98//98 97//97
f 98//98 111//111 112//112
f 112//112 99//99 98//98
f 99//99 112//112 113//113
f 113//113 100//100 99//99
f 100//100 113//113 114//114
f 114//114 101//101 100//100
f 101//101 114//114 115//115
f 115//115 102//102 101//101
f 102//102 115//115 116//116
f 116//116 103//103 102//102
f 103//103 116//116 117//117
f 117//117 104//104 103//103
f 104//104 117//117 118//118
f 118//118 105//105 104//104
f 105//105 118//118 106//106
f 106//106 93//93 105//105
f 106//106 119//119 120//120
f 120//120 107//107 106//106
f 107//107 120//120 121//121
f 121//121 108//108 107//107
f 108//108 121//121 122//122
f 122//122 109//109 108//108
f 109//109 122//122 123//123
f 123//123 110//110 109//109
f 110//110 123//123 124//124
f 124//124 111//111 110//110
f 111//111 124//124 125//125
f 125//125 112//112 111//111
f 112//112 125//125 126//126
f 126//126 113//113 112//112
f 113//113 126//126 127//127
f 127//127 114//114 113//113
f 114//114 127//127 128//128
f 128//128 115//115 114//114
f 115//115 128//128 129//129
f 129//129 116//116 115//115
f 116//116 129//129 130//130
f 130//130 117//117 116//116
f 117//117 130//130 131//131
f 131//131 118//118 117//117
f 118//118 131//131 119//119
f 119//119 106//106 118//118
f 119//119 132//132 133//133
f 133//133 120//120 119//119
f 120//120 133//133 134//134
f 134//134 121//121 120//120
f 121//121 134//134 135//135
f 135//135 122//122 121//121
f 122//122 135//135 136//136
f 136//136 123//123 122//122
f 123//123 136//136 137//137
f 137//137 124//124 123//123
f 124//124 137//137 138//138
f 138//138 125//125 124//124
f 125//125 138//138 139//139
f 139//139 126//126 125//125
f 126//126 139//139 140//140
f 140//140 127//127 126//126
f 127//127 140//140 141//141
f 141//141 128//128 127//127
f 128//128 141//141 142//142
f 142//142 129//129 128//128
f 129//129 142//142 143//143
f 143//143 130//130 129//129
f 130//130 143//143 144//144
f 144//144 131//131 130//130
f 131//131 144//144 132//132
f 132//132 119//119 131//131
f 132//132 145//145 146//146
f 146//146 133//133 132//132
f 133//133 146//146 147//147
f 147//147 134//134 133//133
f 134//134 147//147 148//148
f 148//148 135//135 134//134
f 135//135 148//148 149//149
f 149//149 136//136 135//135
f 136//136 149//149 150//150
f 150//150 137//137 136//136
f 137//137 150//150 151//151
f 151//151 138//138 137//137
f 138//138 151//151 152//152
f 152//152 139//139 138//138
f 139//139 152//152 153//153
f 153//153 140//140 139//139
f 140//140 153//153 154//154
f 154//154 141//141 140//140
f 141//141 154//154 155//155
f 155//155 142//142 141//141
f 142//142 155//155 156//156
f 156//156 143//143 142//142
f 143//143 156//156 157//157
f 157//157 144//144 143//143
f 144//144 157//157 145//145
f 145//145 132//132 144//144
f 158//158 146//146 145//145
f 158//158 147//147 146//146
f 158//158 148//148 147//147
f 158//158 149//149 148//148
f 158//158 150//150 149//149
f 158//158 151//151 150//150
f 158//158 152//152 151//151
f 158//158 153//153 152//152
f 158//158 154//154 153//153
f 158//158 155//155 154//154
f 158//158 156//156 155//155
f 158//158 157//157 156//156
f 158//158 145//145 157//157
